# xmcd
#
# Track frame offsets: 
#        150
#        16621
#        35340
#        56608
#        76717
#        108099
#        135030
#        152804
#        173575
#        192385
#        211273
#        241661
#
# Disc length: 3472 seconds
#
# Revision: 0
# Processed by: cddbd v1.5.1PL0 Copyright (c) Steve Scherf et al.
# Submitted via: ExactAudioCopy v0.95a5
#
DISCID=7d0d8e0c
DTITLE=Sami Saari - Nelj‰s
DYEAR=2005
DGENRE=Soul
TTITLE0=Uusi sukupolvi nousee
TTITLE1=Rikki jo ennen sua
TTITLE2=Langan toisessa p‰‰ss‰
TTITLE3=Rakkauden t‰hden
TTITLE4=Maailman syd‰n
TTITLE5=Se on okei (kitarani mink‰ teit)
TTITLE6=Julma maailma
TTITLE7=Hei mies
TTITLE8=Smalltalk
TTITLE9=Tyylikk‰imm‰t autot
TTITLE10=N‰lk‰, jano ja kaipuu
TTITLE11=bonus track
EXTD=
EXTT0=
EXTT1=
EXTT2=
EXTT3=
EXTT4=
EXTT5=
EXTT6=
EXTT7=
EXTT8=
EXTT9=
EXTT10=
EXTT11=
PLAYORDER=
